<svg width="24" height="24" viewBox="0 0 24 24" fill="none" xmlns="http://www.w3.org/2000/svg">
<path d="M20.5 16.8659C20.5 18.8663 18.8532 20.5 16.8069 20.5C14.7605 20.5 13.1137 18.8663 13.1137 16.8659C13.1137 14.8655 14.7605 13.2318 16.8069 13.2318C18.8532 13.2318 20.5 14.8655 20.5 16.8659ZM10.7672 3.7963C10.985 3.40123 11.5666 3.40123 11.7844 3.7963L15.1557 9.91314C15.3562 10.277 15.0956 10.7409 14.6471 10.7409H7.9045C7.45597 10.7409 7.19539 10.277 7.39593 9.91314L10.7672 3.7963ZM3.5 14.1814C3.5 13.8776 3.7517 13.6193 4.07718 13.6193H9.52289C9.84837 13.6193 10.1001 13.8776 10.1001 14.1814V19.5504C10.1001 19.8541 9.84837 20.1124 9.52289 20.1124H4.07718C3.7517 20.1124 3.5 19.8541 3.5 19.5504V14.1814Z" stroke="#262626"/>
</svg>
