<svg width="24" height="24" viewBox="0 0 24 24" fill="none" xmlns="http://www.w3.org/2000/svg">
<path d="M6.97869 19.009L5.85465 20.14C5.54011 20.4565 5 20.2338 5 19.7876V3.5C5 3.22386 5.22386 3 5.5 3H18.5C18.7761 3 19 3.22386 19 3.5V19.7876C19 20.2338 18.4599 20.4565 18.1454 20.14L17.0213 19.009C16.8258 18.8123 16.5075 18.8123 16.312 19.009L14.688 20.6432C14.4925 20.8399 14.1742 20.8399 13.9787 20.6432L12.3546 19.009C12.1591 18.8123 11.8409 18.8123 11.6454 19.009L10.0213 20.6432C9.8258 20.8399 9.50753 20.8399 9.31202 20.6432L7.68798 19.009C7.49247 18.8123 7.1742 18.8123 6.97869 19.009Z" stroke="#808080"/>
<path d="M8 7H16" stroke="#808080" stroke-linecap="round"/>
<path d="M8 11H16" stroke="#808080" stroke-linecap="round"/>
<path d="M8 15H16" stroke="#808080" stroke-linecap="round"/>
</svg>
