<svg width="24" height="24" viewBox="0 0 24 24" fill="none" xmlns="http://www.w3.org/2000/svg">
<path d="M4 14C4 13.4477 4.44772 13 5 13H10C10.5523 13 11 13.4477 11 14V19C11 19.5523 10.5523 20 10 20H5C4.44772 20 4 19.5523 4 19V14Z" stroke="#808080"/>
<path d="M11 14C11 13.4477 11.4477 13 12 13H17C17.5523 13 18 13.4477 18 14V19C18 19.5523 17.5523 20 17 20H12C11.4477 20 11 19.5523 11 19V14Z" stroke="#808080"/>
<path d="M4 7C4 6.44772 4.44772 6 5 6H10C10.5523 6 11 6.44772 11 7V12C11 12.5523 10.5523 13 10 13H5C4.44772 13 4 12.5523 4 12V7Z" stroke="#808080"/>
<rect x="14" y="4" width="6" height="6" rx="3" stroke="#808080"/>
</svg>
